<svg xmlns="http://www.w3.org/2000/svg" viewBox="0 0 1500 1500" width="1500" height="1500" preserveAspectRatio="xMidYMid meet" style="width: 100%; height: 100%; transform: translate3d(0px, 0px, 0px);"><defs><clipPath id="__lottie_element_6"><rect width="1500" height="1500" x="0" y="0"></rect></clipPath><clipPath id="__lottie_element_8"><path d="M0,0 L1500,0 L1500,1500 L0,1500z"></path></clipPath></defs><g clip-path="url(#__lottie_element_6)"><g clip-path="url(#__lottie_element_8)" transform="matrix(1,0,0,1,0,0)" opacity="1" style="display: block;"><g transform="matrix(12.390000343322754,0,0,12.390000343322754,750,750)" opacity="1" style="display: block;"><g opacity="1" transform="matrix(1,0,0,1,0,0)"><path fill="rgb(255,255,255)" fill-opacity="1" d=" M-32.01900100708008,-49.292999267578125 C-32.01900100708008,-49.292999267578125 -36.77799987792969,-34.595001220703125 -36.77799987792969,-34.595001220703125 C-36.77799987792969,-34.595001220703125 17.51300048828125,-34.6349983215332 17.51300048828125,-34.6349983215332 C17.51300048828125,-34.6349983215332 12.744000434875488,-49.33300018310547 12.744000434875488,-49.33300018310547 C12.744000434875488,-49.33300018310547 -32.01900100708008,-49.292999267578125 -32.01900100708008,-49.292999267578125z"></path></g></g><g transform="matrix(12.390000343322754,0,0,12.390000343322754,750,750)" opacity="1" style="display: block;"><g opacity="1" transform="matrix(1,0,0,1,0,0)"><path fill="rgb(255,255,255)" fill-opacity="1" d=" M32.04100036621094,-49.35300064086914 C32.04100036621094,-49.35300064086914 16.593000411987305,-49.33300018310547 16.593000411987305,-49.33300018310547 C16.593000411987305,-49.33300018310547 33.4010009765625,2.2990000247955322 33.4010009765625,2.2990000247955322 C33.4010009765625,2.2990000247955322 45.888999938964844,-6.789999961853027 45.888999938964844,-6.789999961853027 C45.888999938964844,-6.789999961853027 32.05099868774414,-49.35300064086914 32.05099868774414,-49.35300064086914 C32.05099868774414,-49.35300064086914 32.04100036621094,-49.35300064086914 32.04100036621094,-49.35300064086914z"></path></g></g><g transform="matrix(12.390000343322754,0,0,12.390000343322754,750,750)" opacity="1" style="display: block;"><g opacity="1" transform="matrix(1,0,0,1,0,0)"><path fill="rgb(255,255,255)" fill-opacity="1" d=" M3.128999948501587,28.850000381469727 C3.128999948501587,28.850000381469727 15.63700008392334,37.91899871826172 15.63700008392334,37.91899871826172 C15.63700008392334,37.91899871826172 51.821998596191406,11.602999687194824 51.821998596191406,11.602999687194824 C51.821998596191406,11.602999687194824 47.03200149536133,-3.0940001010894775 47.03200149536133,-3.0940001010894775 C47.03200149536133,-3.0940001010894775 3.1389999389648438,28.84000015258789 3.1389999389648438,28.84000015258789 C3.1389999389648438,28.84000015258789 3.128999948501587,28.850000381469727 3.128999948501587,28.850000381469727z"></path></g></g><g transform="matrix(12.390000343322754,0,0,12.390000343322754,750,750)" opacity="1" style="display: block;"><g opacity="1" transform="matrix(1,0,0,1,0,0)"><path fill="rgb(255,255,255)" fill-opacity="1" d=" M-36.183998107910156,23.01099967956543 C-36.183998107910156,23.01099967956543 -36.183998107910156,23.0310001373291 -36.183998107910156,23.0310001373291 C-36.183998107910156,23.0310001373291 0.029999999329447746,49.297000885009766 0.029999999329447746,49.297000885009766 C0.029999999329447746,49.297000885009766 12.517999649047852,40.20800018310547 12.517999649047852,40.20800018310547 C12.517999649047852,40.20800018310547 -31.405000686645508,8.314000129699707 -31.405000686645508,8.314000129699707 C-31.405000686645508,8.314000129699707 -36.183998107910156,23.01099967956543 -36.183998107910156,23.01099967956543z"></path></g></g><g transform="matrix(12.390000343322754,0,0,12.390000343322754,750,750)" opacity="1" style="display: block;"><g opacity="1" transform="matrix(1,0,0,1,0,0)"><path fill="rgb(255,255,255)" fill-opacity="1" d=" M-37.96799850463867,-30.93600082397461 C-37.96799850463867,-30.93600082397461 -51.775001525878906,11.626999855041504 -51.775001525878906,11.626999855041504 C-51.775001525878906,11.626999855041504 -39.266998291015625,20.695999145507812 -39.266998291015625,20.695999145507812 C-39.266998291015625,20.695999145507812 -22.520000457763672,-30.945999145507812 -22.520000457763672,-30.945999145507812 C-22.520000457763672,-30.945999145507812 -37.96799850463867,-30.926000595092773 -37.96799850463867,-30.926000595092773 C-37.96799850463867,-30.926000595092773 -37.96799850463867,-30.93600082397461 -37.96799850463867,-30.93600082397461z"></path></g></g><g transform="matrix(12.390000343322754,0,0,12.390000343322754,750,750)" opacity="1" style="display: block;"><g opacity="1" transform="matrix(1,0,0,1,0,0)"><path fill="rgb(255,255,255)" fill-opacity="1" d=" M-18.650999069213867,-30.95599937438965 C-18.650999069213867,-30.95599937438965 -23.43000030517578,-16.257999420166016 -23.43000030517578,-16.257999420166016 C-23.43000030517578,-16.257999420166016 4.175000190734863,-16.277999877929688 4.175000190734863,-16.277999877929688 C4.175000190734863,-16.277999877929688 -0.6039999723434448,-30.95599937438965 -0.6039999723434448,-30.95599937438965 C-0.6039999723434448,-30.95599937438965 -18.660999298095703,-30.95599937438965 -18.660999298095703,-30.95599937438965 C-18.660999298095703,-30.95599937438965 -18.650999069213867,-30.95599937438965 -18.650999069213867,-30.95599937438965z"></path></g></g><g transform="matrix(12.390000343322754,0,0,12.390000343322754,750,750)" opacity="1" style="display: block;"><g opacity="1" transform="matrix(1,0,0,1,0,0)"><path fill="rgb(255,255,255)" fill-opacity="1" d=" M3.246000051498413,-30.97599983215332 C3.246000051498413,-30.97599983215332 11.803999900817871,-4.730000019073486 11.803999900817871,-4.730000019073486 C11.803999900817871,-4.730000019073486 24.29199981689453,-13.819000244140625 24.29199981689453,-13.819000244140625 C24.29199981689453,-13.819000244140625 18.71299934387207,-30.97599983215332 18.71299934387207,-30.97599983215332 C18.71299934387207,-30.97599983215332 3.246000051498413,-30.97599983215332 3.246000051498413,-30.97599983215332z"></path></g></g><g transform="matrix(12.390000343322754,0,0,12.390000343322754,750,750)" opacity="1" style="display: block;"><g opacity="1" transform="matrix(1,0,0,1,0,0)"><path fill="rgb(255,255,255)" fill-opacity="1" d=" M3.1659998893737793,6.107999801635742 C3.1659998893737793,6.107999801635742 15.673999786376953,15.166000366210938 15.673999786376953,15.166000366210938 C15.673999786376953,15.166000366210938 30.270999908447266,4.567999839782715 30.270999908447266,4.567999839782715 C30.270999908447266,4.567999839782715 30.270999908447266,4.547999858856201 30.270999908447266,4.547999858856201 C30.270999908447266,4.547999858856201 25.48200035095215,-10.14900016784668 25.48200035095215,-10.14900016784668 C25.48200035095215,-10.14900016784668 3.1659998893737793,6.107999801635742 3.1659998893737793,6.107999801635742z"></path></g></g><g transform="matrix(12.390000343322754,0,0,12.390000343322754,750,750)" opacity="1" style="display: block;"><g opacity="1" transform="matrix(1,0,0,1,0,0)"><path fill="rgb(255,255,255)" fill-opacity="1" d=" M-14.607999801635742,15.972000122070312 C-14.607999801635742,15.972000122070312 0.009999999776482582,26.590999603271484 0.009999999776482582,26.590999603271484 C0.009999999776482582,26.590999603271484 12.498000144958496,17.50200080871582 12.498000144958496,17.50200080871582 C12.498000144958496,17.50200080871582 -9.857999801635742,1.3049999475479126 -9.857999801635742,1.3049999475479126 C-9.857999801635742,1.3049999475479126 -14.607999801635742,15.972000122070312 -14.607999801635742,15.972000122070312z"></path></g></g><g transform="matrix(12.390000343322754,0,0,12.390000343322754,750,750)" opacity="1" style="display: block;"><g opacity="1" transform="matrix(1,0,0,1,0,0)"><path fill="rgb(255,255,255)" fill-opacity="1" d=" M-24.6200008392334,-12.58899974822998 C-24.6200008392334,-12.58899974822998 -30.18899917602539,4.5879998207092285 -30.18899917602539,4.5879998207092285 C-30.18899917602539,4.5879998207092285 -17.680999755859375,13.656999588012695 -17.680999755859375,13.656999588012695 C-17.680999755859375,13.656999588012695 -9.17199993133545,-12.58899974822998 -9.17199993133545,-12.58899974822998 C-9.17199993133545,-12.58899974822998 -24.6200008392334,-12.58899974822998 -24.6200008392334,-12.58899974822998z"></path></g></g></g></g></svg>